<mxfile host="65bd71144e">
    <diagram id="20lwtLBy5LYCootBHgk5" name="training">
        <mxGraphModel dx="1466" dy="834" grid="1" gridSize="10" guides="1" tooltips="1" connect="1" arrows="1" fold="1" page="1" pageScale="1" pageWidth="840" pageHeight="1120" math="0" shadow="0">
            <root>
                <mxCell id="0"/>
                <mxCell id="1" parent="0"/>
                <mxCell id="14" value="" style="rounded=0;whiteSpace=wrap;html=1;fontSize=10;fillColor=default;" parent="1" vertex="1">
                    <mxGeometry x="240" y="120" width="160" height="810" as="geometry"/>
                </mxCell>
                <mxCell id="38" value="" style="rounded=0;whiteSpace=wrap;html=1;fillColor=none;container=0;" parent="1" vertex="1">
                    <mxGeometry x="250" y="220" width="140" height="700" as="geometry"/>
                </mxCell>
                <mxCell id="23" value="" style="rounded=0;whiteSpace=wrap;html=1;fillColor=default;" parent="1" vertex="1">
                    <mxGeometry x="440" y="230" width="160" height="620" as="geometry"/>
                </mxCell>
                <mxCell id="26" value="" style="rounded=0;whiteSpace=wrap;html=1;fillColor=none;" parent="1" vertex="1">
                    <mxGeometry x="450" y="630" width="140" height="210" as="geometry"/>
                </mxCell>
                <mxCell id="21" value="" style="rounded=0;whiteSpace=wrap;html=1;fillColor=none;" parent="1" vertex="1">
                    <mxGeometry x="450" y="330" width="140" height="260" as="geometry"/>
                </mxCell>
                <mxCell id="42" value="" style="edgeStyle=none;html=1;fontSize=12;" parent="1" source="2" target="41" edge="1">
                    <mxGeometry relative="1" as="geometry"/>
                </mxCell>
                <mxCell id="69" style="edgeStyle=none;html=1;dashed=1;startArrow=diamond;startFill=1;" edge="1" parent="1" source="2" target="68">
                    <mxGeometry relative="1" as="geometry"/>
                </mxCell>
                <mxCell id="2" value="Task-1&lt;br&gt;&lt;font style=&quot;font-size: 10px;&quot;&gt;Deploment of model in AI4EOSC platform&lt;/font&gt;" style="rounded=0;whiteSpace=wrap;html=1;" parent="1" vertex="1">
                    <mxGeometry x="260" y="230" width="120" height="60" as="geometry"/>
                </mxCell>
                <mxCell id="18" style="edgeStyle=none;html=1;" parent="1" source="13" target="17" edge="1">
                    <mxGeometry relative="1" as="geometry"/>
                </mxCell>
                <mxCell id="13" value="&lt;font style=&quot;&quot;&gt;&lt;font style=&quot;font-size: 12px;&quot;&gt;Switch git branch&lt;/font&gt;&lt;br&gt;&lt;span style=&quot;font-size: 10px;&quot;&gt;to required&lt;/span&gt;&lt;br&gt;&lt;span style=&quot;font-size: 10px;&quot;&gt;training&amp;nbsp;data&lt;/span&gt;&lt;/font&gt;" style="rounded=0;whiteSpace=wrap;html=1;" parent="1" vertex="1">
                    <mxGeometry x="460" y="340" width="120" height="60" as="geometry"/>
                </mxCell>
                <mxCell id="16" value="&lt;font style=&quot;font-size: 12px;&quot;&gt;Github actions&lt;/font&gt;" style="text;html=1;strokeColor=none;fillColor=none;align=center;verticalAlign=middle;whiteSpace=wrap;rounded=0;fontSize=12;" parent="1" vertex="1">
                    <mxGeometry x="240" y="90" width="90" height="30" as="geometry"/>
                </mxCell>
                <mxCell id="20" value="" style="edgeStyle=none;html=1;" parent="1" source="17" target="19" edge="1">
                    <mxGeometry relative="1" as="geometry"/>
                </mxCell>
                <mxCell id="17" value="&lt;font style=&quot;&quot;&gt;&lt;font style=&quot;font-size: 12px;&quot;&gt;Pull dvc remote &lt;/font&gt;&lt;br&gt;&lt;span style=&quot;font-size: 10px;&quot;&gt;with last data version&lt;/span&gt;&lt;br&gt;&lt;span style=&quot;font-size: 10px;&quot;&gt;(next-cloud webdav)&lt;/span&gt;&lt;/font&gt;" style="rounded=0;whiteSpace=wrap;html=1;" parent="1" vertex="1">
                    <mxGeometry x="460" y="440" width="120" height="60" as="geometry"/>
                </mxCell>
                <mxCell id="29" style="edgeStyle=none;html=1;exitX=0.75;exitY=1;exitDx=0;exitDy=0;entryX=0.75;entryY=0;entryDx=0;entryDy=0;" parent="1" source="19" target="25" edge="1">
                    <mxGeometry relative="1" as="geometry"/>
                </mxCell>
                <mxCell id="19" value="Start &lt;br&gt;&lt;font style=&quot;font-size: 10px;&quot;&gt;deepaas service&lt;/font&gt;" style="rounded=0;whiteSpace=wrap;html=1;" parent="1" vertex="1">
                    <mxGeometry x="460" y="540" width="120" height="40" as="geometry"/>
                </mxCell>
                <mxCell id="22" value="&lt;font style=&quot;font-size: 12px;&quot;&gt;deep-start&lt;/font&gt;" style="text;html=1;strokeColor=none;fillColor=none;align=center;verticalAlign=middle;whiteSpace=wrap;rounded=0;fontSize=12;" parent="1" vertex="1">
                    <mxGeometry x="450" y="300" width="70" height="30" as="geometry"/>
                </mxCell>
                <mxCell id="24" value="&lt;font style=&quot;font-size: 12px;&quot;&gt;AI4EOSC-Platform&lt;/font&gt;" style="text;html=1;strokeColor=none;fillColor=none;align=center;verticalAlign=middle;whiteSpace=wrap;rounded=0;fontSize=12;" parent="1" vertex="1">
                    <mxGeometry x="440" y="200" width="120" height="30" as="geometry"/>
                </mxCell>
                <mxCell id="35" value="" style="edgeStyle=none;html=1;" parent="1" source="25" target="34" edge="1">
                    <mxGeometry relative="1" as="geometry"/>
                </mxCell>
                <mxCell id="25" value="Wait&lt;br&gt;&lt;font style=&quot;font-size: 10px;&quot;&gt;for request&lt;/font&gt;" style="rounded=0;whiteSpace=wrap;html=1;" parent="1" vertex="1">
                    <mxGeometry x="460" y="640" width="120" height="40" as="geometry"/>
                </mxCell>
                <mxCell id="27" value="&lt;font style=&quot;font-size: 12px;&quot;&gt;deepas-run&lt;/font&gt;" style="text;html=1;strokeColor=none;fillColor=none;align=center;verticalAlign=middle;whiteSpace=wrap;rounded=0;fontSize=10;" parent="1" vertex="1">
                    <mxGeometry x="450" y="600" width="70" height="30" as="geometry"/>
                </mxCell>
                <mxCell id="37" value="" style="edgeStyle=none;html=1;" parent="1" source="34" target="36" edge="1">
                    <mxGeometry relative="1" as="geometry"/>
                </mxCell>
                <mxCell id="34" value="Training" style="rhombus;whiteSpace=wrap;html=1;rounded=0;fontSize=10;" parent="1" vertex="1">
                    <mxGeometry x="480" y="710" width="80" height="40" as="geometry"/>
                </mxCell>
                <mxCell id="89" style="edgeStyle=none;html=1;dashed=1;startArrow=diamond;startFill=1;" edge="1" parent="1" source="36" target="88">
                    <mxGeometry relative="1" as="geometry"/>
                </mxCell>
                <mxCell id="36" value="Perform&lt;br&gt;&lt;font style=&quot;font-size: 10px;&quot;&gt;training&lt;/font&gt;" style="whiteSpace=wrap;html=1;rounded=0;" parent="1" vertex="1">
                    <mxGeometry x="460" y="790" width="120" height="40" as="geometry"/>
                </mxCell>
                <mxCell id="39" value="&lt;font style=&quot;font-size: 12px;&quot;&gt;prefect flow&lt;/font&gt;" style="text;html=1;strokeColor=none;fillColor=none;align=center;verticalAlign=middle;whiteSpace=wrap;rounded=0;fontSize=12;" parent="1" vertex="1">
                    <mxGeometry x="250" y="190" width="80" height="30" as="geometry"/>
                </mxCell>
                <mxCell id="43" style="edgeStyle=none;html=1;entryX=0.5;entryY=0;entryDx=0;entryDy=0;fontSize=10;" parent="1" source="41" target="7" edge="1">
                    <mxGeometry relative="1" as="geometry"/>
                </mxCell>
                <mxCell id="41" value="&lt;font style=&quot;font-size: 10px;&quot;&gt;Ready&lt;/font&gt;" style="rhombus;whiteSpace=wrap;html=1;rounded=0;" parent="1" vertex="1">
                    <mxGeometry x="280" y="480" width="80" height="40" as="geometry"/>
                </mxCell>
                <mxCell id="50" value="&lt;font style=&quot;font-size: 12px;&quot;&gt;User laptop&lt;/font&gt;" style="text;html=1;strokeColor=none;fillColor=none;align=center;verticalAlign=middle;whiteSpace=wrap;rounded=0;fontSize=12;" parent="1" vertex="1">
                    <mxGeometry x="40" y="10" width="80" height="30" as="geometry"/>
                </mxCell>
                <mxCell id="51" value="" style="rounded=0;whiteSpace=wrap;html=1;fontSize=10;fillColor=default;" parent="1" vertex="1">
                    <mxGeometry x="40" y="40" width="160" height="970" as="geometry"/>
                </mxCell>
                <mxCell id="52" value="&lt;font style=&quot;font-size: 12px;&quot;&gt;Model changes&lt;/font&gt; or&lt;br&gt;new data collected&amp;nbsp;" style="rounded=0;whiteSpace=wrap;html=1;fontSize=10;fillColor=none;" parent="1" vertex="1">
                    <mxGeometry x="60" y="60" width="120" height="40" as="geometry"/>
                </mxCell>
                <mxCell id="53" value="MLFlow server" style="text;html=1;strokeColor=none;fillColor=none;align=center;verticalAlign=middle;whiteSpace=wrap;rounded=0;fontSize=12;" parent="1" vertex="1">
                    <mxGeometry x="640" y="670" width="90" height="30" as="geometry"/>
                </mxCell>
                <mxCell id="54" value="" style="rounded=0;whiteSpace=wrap;html=1;fontSize=10;fillColor=default;" parent="1" vertex="1">
                    <mxGeometry x="640" y="700" width="160" height="380" as="geometry"/>
                </mxCell>
                <mxCell id="64" style="edgeStyle=elbowEdgeStyle;html=1;dashed=1;fontSize=10;startArrow=diamond;startFill=1;" parent="1" source="57" target="63" edge="1">
                    <mxGeometry relative="1" as="geometry"/>
                </mxCell>
                <mxCell id="57" value="&lt;font style=&quot;font-size: 12px;&quot;&gt;Create and Accept&lt;/font&gt;&lt;br&gt;PR with new dataset&amp;nbsp;" style="whiteSpace=wrap;html=1;fontSize=10;fillColor=none;rounded=0;" parent="1" vertex="1">
                    <mxGeometry x="60" y="130" width="120" height="40" as="geometry"/>
                </mxCell>
                <mxCell id="60" value="" style="edgeStyle=none;html=1;fontSize=12;" parent="1" source="52" target="57" edge="1">
                    <mxGeometry relative="1" as="geometry">
                        <mxPoint x="370" y="150" as="sourcePoint"/>
                        <mxPoint x="370" y="300" as="targetPoint"/>
                    </mxGeometry>
                </mxCell>
                <mxCell id="63" value="PR &lt;br&gt;Merged" style="rhombus;whiteSpace=wrap;html=1;rounded=0;fontSize=10;" parent="1" vertex="1">
                    <mxGeometry x="290" y="130" width="100" height="40" as="geometry"/>
                </mxCell>
                <mxCell id="66" style="edgeStyle=none;html=1;entryX=0.643;entryY=-0.001;entryDx=0;entryDy=0;entryPerimeter=0;" parent="1" source="63" target="38" edge="1">
                    <mxGeometry relative="1" as="geometry">
                        <mxPoint x="570" y="150" as="sourcePoint"/>
                        <mxPoint x="340" y="180" as="targetPoint"/>
                    </mxGeometry>
                </mxCell>
                <mxCell id="70" style="edgeStyle=none;html=1;" edge="1" parent="1" source="68">
                    <mxGeometry relative="1" as="geometry">
                        <mxPoint x="530" y="340" as="targetPoint"/>
                    </mxGeometry>
                </mxCell>
                <mxCell id="68" value="API&lt;br&gt;Deploy" style="rhombus;whiteSpace=wrap;html=1;rounded=0;fontSize=10;" vertex="1" parent="1">
                    <mxGeometry x="480" y="240" width="100" height="40" as="geometry"/>
                </mxCell>
                <mxCell id="76" style="edgeStyle=none;html=1;dashed=1;startArrow=diamond;startFill=1;" edge="1" parent="1" source="7" target="34">
                    <mxGeometry relative="1" as="geometry"/>
                </mxCell>
                <mxCell id="82" style="edgeStyle=none;html=1;dashed=1;startArrow=diamond;startFill=1;" edge="1" parent="1" source="9" target="81">
                    <mxGeometry relative="1" as="geometry"/>
                </mxCell>
                <mxCell id="9" value="Task-3&lt;br&gt;&lt;font style=&quot;font-size: 10px;&quot;&gt;Confirm trainign&lt;/font&gt;" style="rounded=0;whiteSpace=wrap;html=1;" parent="1" vertex="1">
                    <mxGeometry x="260" y="860" width="120" height="50" as="geometry"/>
                </mxCell>
                <mxCell id="72" value="&lt;font style=&quot;font-size: 10px;&quot;&gt;Ready&lt;/font&gt;" style="rhombus;whiteSpace=wrap;html=1;rounded=0;" vertex="1" parent="1">
                    <mxGeometry x="280" y="790" width="80" height="40" as="geometry"/>
                </mxCell>
                <mxCell id="75" style="edgeStyle=none;html=1;" edge="1" parent="1" source="72" target="9">
                    <mxGeometry relative="1" as="geometry">
                        <mxPoint x="350.00672517569524" y="189.99730992972195" as="sourcePoint"/>
                        <mxPoint x="350.02" y="229.47000000000003" as="targetPoint"/>
                    </mxGeometry>
                </mxCell>
                <mxCell id="7" value="Task-2&lt;br&gt;&lt;font style=&quot;font-size: 10px;&quot;&gt;Request training on deployment container&amp;nbsp;&lt;/font&gt;" style="rounded=0;whiteSpace=wrap;html=1;" parent="1" vertex="1">
                    <mxGeometry x="260" y="700" width="120" height="60" as="geometry"/>
                </mxCell>
                <mxCell id="71" value="" style="edgeStyle=none;html=1;fontSize=12;" edge="1" target="72" parent="1" source="7">
                    <mxGeometry relative="1" as="geometry">
                        <mxPoint x="320" y="515" as="sourcePoint"/>
                    </mxGeometry>
                </mxCell>
                <mxCell id="87" style="edgeStyle=none;html=1;dashed=1;startArrow=diamond;startFill=1;" edge="1" parent="1" source="77" target="34">
                    <mxGeometry relative="1" as="geometry"/>
                </mxCell>
                <mxCell id="77" value="&lt;font style=&quot;font-size: 12px;&quot;&gt;Provide model&lt;br&gt;&lt;/font&gt;from registry" style="rounded=0;whiteSpace=wrap;html=1;fontSize=10;fillColor=none;" vertex="1" parent="1">
                    <mxGeometry x="660" y="710" width="120" height="40" as="geometry"/>
                </mxCell>
                <mxCell id="78" value="&lt;font style=&quot;font-size: 12px;&quot;&gt;Save experiment&lt;br&gt;&lt;/font&gt;mterics and model&amp;nbsp;" style="whiteSpace=wrap;html=1;fontSize=10;fillColor=none;rounded=0;" vertex="1" parent="1">
                    <mxGeometry x="660" y="870" width="120" height="40" as="geometry"/>
                </mxCell>
                <mxCell id="96" style="edgeStyle=none;html=1;dashed=1;startArrow=diamond;startFill=1;" edge="1" parent="1" source="79" target="93">
                    <mxGeometry relative="1" as="geometry"/>
                </mxCell>
                <mxCell id="79" value="&lt;font style=&quot;font-size: 12px;&quot;&gt;Evaluate and update&lt;/font&gt;&lt;br&gt;stage/Production&lt;br&gt;&amp;nbsp;model version&amp;nbsp;" style="whiteSpace=wrap;html=1;fontSize=10;fillColor=none;rounded=0;" vertex="1" parent="1">
                    <mxGeometry x="60" y="940" width="120" height="60" as="geometry"/>
                </mxCell>
                <mxCell id="80" value="&lt;font style=&quot;font-size: 12px;&quot;&gt;Save model&lt;br&gt;&lt;/font&gt;in registry" style="whiteSpace=wrap;html=1;fontSize=10;fillColor=none;rounded=0;" vertex="1" parent="1">
                    <mxGeometry x="660" y="1030" width="120" height="40" as="geometry"/>
                </mxCell>
                <mxCell id="81" value="&lt;font style=&quot;font-size: 10px;&quot;&gt;Ready&lt;/font&gt;" style="rhombus;whiteSpace=wrap;html=1;rounded=0;" vertex="1" parent="1">
                    <mxGeometry x="80" y="865" width="80" height="40" as="geometry"/>
                </mxCell>
                <mxCell id="83" style="edgeStyle=none;html=1;" edge="1" parent="1" source="57" target="81">
                    <mxGeometry relative="1" as="geometry">
                        <mxPoint x="390.00577133952766" y="179.99769146418885" as="sourcePoint"/>
                        <mxPoint x="390.02" y="229.30000000000007" as="targetPoint"/>
                    </mxGeometry>
                </mxCell>
                <mxCell id="86" style="edgeStyle=none;html=1;" edge="1" parent="1" source="81" target="79">
                    <mxGeometry relative="1" as="geometry">
                        <mxPoint x="370" y="840" as="sourcePoint"/>
                        <mxPoint x="370" y="870" as="targetPoint"/>
                    </mxGeometry>
                </mxCell>
                <mxCell id="88" value="&lt;font style=&quot;font-size: 10px;&quot;&gt;Metrics&lt;/font&gt;" style="rhombus;whiteSpace=wrap;html=1;rounded=0;" vertex="1" parent="1">
                    <mxGeometry x="680" y="790" width="80" height="40" as="geometry"/>
                </mxCell>
                <mxCell id="91" style="edgeStyle=none;html=1;" edge="1" parent="1" source="77" target="88">
                    <mxGeometry relative="1" as="geometry">
                        <mxPoint x="719.47" y="860" as="sourcePoint"/>
                        <mxPoint x="720" y="810" as="targetPoint"/>
                    </mxGeometry>
                </mxCell>
                <mxCell id="92" style="edgeStyle=none;html=1;" edge="1" parent="1" source="88" target="78">
                    <mxGeometry relative="1" as="geometry">
                        <mxPoint x="730" y="760" as="sourcePoint"/>
                        <mxPoint x="730" y="800" as="targetPoint"/>
                    </mxGeometry>
                </mxCell>
                <mxCell id="93" value="&lt;font style=&quot;font-size: 10px;&quot;&gt;Registry&lt;/font&gt;" style="rhombus;whiteSpace=wrap;html=1;rounded=0;" vertex="1" parent="1">
                    <mxGeometry x="680" y="950" width="80" height="40" as="geometry"/>
                </mxCell>
                <mxCell id="94" style="edgeStyle=none;html=1;" edge="1" parent="1" source="78" target="93">
                    <mxGeometry relative="1" as="geometry">
                        <mxPoint x="570" y="920" as="sourcePoint"/>
                        <mxPoint x="730" y="880" as="targetPoint"/>
                    </mxGeometry>
                </mxCell>
                <mxCell id="95" style="edgeStyle=none;html=1;" edge="1" parent="1" source="93" target="80">
                    <mxGeometry relative="1" as="geometry">
                        <mxPoint x="730" y="920" as="sourcePoint"/>
                        <mxPoint x="730" y="960" as="targetPoint"/>
                    </mxGeometry>
                </mxCell>
            </root>
        </mxGraphModel>
    </diagram>
</mxfile>